<svg xmlns="http://www.w3.org/2000/svg" viewBox="-171.415 3914.582 337.946 220.637"><defs><style>.a{fill:#30bfd0;}</style></defs><path class="a" d="M539,.2,289.7,0V43.391c4.5,30.906,27.221,50.554,58.536,51.578,17.193.614,34.59.2,51.987.2h45.847V126.9c0,.409-243.765-.819-243.765-.819,0,9.006-.2,17.807-.409,26.607v3.479c.409,27.426,10.848,46.665,30.087,56.694,8.6,4.5,18.625,6.959,30.5,7.573,1.433,0,2.865.2,4.5.2H415.374c23.537,0,42.981-8.6,54.648-29.882,5.117-9.62,7.164-20.877,10.848-31.929,30.087-2.661,53.624-17.6,56.694-48.917C541.657,74.092,539,38.069,539,.2ZM418.034,188.913H412.1c-17.6.2-35.2.2-52.806.2-36.227.2-38.888,0-75.115-.2-7.368,0-14.736,0-22.1-.2-18.011-.2-28.04-12.69-27.631-30.087l211.632-.614C444.846,178.065,435.432,188.913,418.034,188.913ZM508.5,101.927c-1.023,15.146-12.076,22.719-29.882,23.537V63.653h-8.6c-48.712,0-67.133.2-115.845,0-21.286-.2-31.315-9.415-33.157-30.087H508.7C508.909,56.49,509.932,79.208,508.5,101.927Z" transform="translate(-373.315 3914.582)"/></svg>