<svg xmlns="http://www.w3.org/2000/svg" viewBox="592.892 2177.497 203.467 81"><defs><style>.a,.b{fill:#006ab5;}.a{font-size:6px;font-family:Cairo-Bold, Cairo;font-weight:700;}.c{fill:#e6e5ea;font-size:43px;font-family:Cairo-Light, Cairo;font-weight:300;letter-spacing:-0.005em;}</style></defs><g transform="translate(592.892 2206.09)"><g transform="translate(0 -28.593)"><g transform="translate(0 17.794)"><text class="a" transform="translate(0 8)"><tspan x="0" y="0">TM</tspan></text><path class="b" d="M59.015,1.074,15.421,1V8.562a10.09,10.09,0,0,0,10.231,8.971c3.04.074,6.079,0,9.045,0H42.7v5.56c0,.074-42.63-.148-42.63-.148,0,1.557,0,3.114-.074,4.671v.593c.074,4.819,1.928,8.155,5.264,9.935A14.118,14.118,0,0,0,10.6,39.478H37.366c4.152,0,7.562-1.483,9.564-5.19a40.836,40.836,0,0,0,1.928-5.56c5.264-.445,9.342-3.114,9.935-8.526C59.46,13.974,59.015,7.673,59.015,1.074Zm-21.2,32.992H36.773c-3.114,0-6.154.074-9.267.074-6.3,0-6.821,0-13.123-.074H10.528c-3.188,0-4.893-2.224-4.819-5.264l37-.074C42.556,32.213,40.925,34.066,37.811,34.066Zm15.866-15.2c-.222,2.669-2.15,4-5.19,4.078V12.121H26.764c-3.707,0-5.486-1.631-5.783-5.264H53.825C53.751,10.935,53.9,14.938,53.677,18.868Z" transform="translate(0 3.146)"/></g><text class="c" transform="translate(203.467 56)"><tspan x="-136.482" y="0">darrbny</tspan></text></g></g></svg>