<svg xmlns="http://www.w3.org/2000/svg" viewBox="-477.595 1179.294 166.986 108.609"><defs><style>.a{fill:#006ab5;}</style></defs><path class="a" d="M166.576,1.209,43.527,1V22.345c2.3,15.276,13.393,24.9,28.879,25.321,8.58.209,17.16,0,25.53,0h22.6V63.361c0,.209-120.328-.419-120.328-.419,0,4.395,0,8.789-.209,13.184V77.8c.209,13.6,5.441,23.019,14.858,28.042a39.85,39.85,0,0,0,15.067,3.767H105.47c11.719,0,21.345-4.185,27-14.649,2.511-4.813,3.558-10.254,5.441-15.695,14.858-1.256,26.367-8.789,28.042-24.066C167.831,37.622,166.576,19.834,166.576,1.209Zm-59.85,93.123H103.8c-8.789,0-17.369.209-26.158.209-17.788,0-19.252,0-37.04-.209H29.716c-9,0-13.812-6.278-13.6-14.858l104.424-.209C120.119,89.1,115.515,94.333,106.726,94.333Zm44.783-42.9c-.628,7.534-6.069,11.3-14.649,11.51V32.39H75.545c-10.463,0-15.486-4.6-16.323-14.858h92.7C151.718,29.042,152.136,40.342,151.508,51.433Z" transform="translate(-477.595 1178.294)"/></svg>