<svg xmlns="http://www.w3.org/2000/svg" viewBox="3588 2664.601 14.649 14.649"><defs><style>.a{fill:#e6e5ea;}</style></defs><g transform="translate(3570 2568.601)"><g transform="translate(18 96)"><g transform="translate(0)"><path class="a" d="M13.24,11.3,9.879,7.937A6.469,6.469,0,0,1,7.937,9.879L11.3,13.24A1.373,1.373,0,0,0,13.24,11.3Z" transform="translate(1.006 1.007)"/><path class="a" d="M10.986,5.493a5.493,5.493,0,1,0-5.493,5.493A5.493,5.493,0,0,0,10.986,5.493ZM5.493,9.613a4.12,4.12,0,1,1,4.12-4.12A4.124,4.124,0,0,1,5.493,9.613Z" transform="translate(0)"/><path class="a" d="M2.031,5.236h.915A2.292,2.292,0,0,1,5.236,2.947V2.031A3.208,3.208,0,0,0,2.031,5.236Z" transform="translate(0.258 0.258)"/></g></g></g></svg>