<svg xmlns="http://www.w3.org/2000/svg" viewBox="-422 3262.581 26.26 21.419"><defs><style>.a,.d{fill:none;}.a{stroke:#32374a;stroke-width:2px;}.b{fill:#32374a;}.c,.e{stroke:none;}.e{fill:#fff;}</style></defs><g transform="translate(-485 2856)"><g class="a" transform="translate(63 407)"><rect class="c" width="21" height="21"/><rect class="d" x="1" y="1" width="19" height="19"/></g><g class="b" transform="translate(66 412)"><path class="c" d="M 6.896167278289795 12.70327854156494 L 6.546447277069092 12.35354900360107 L 0.646447479724884 6.453548431396484 L 0.2928874790668488 6.099998474121094 L 0.646447479724884 5.746448516845703 L 2.046447515487671 4.346448421478271 L 2.396047592163086 3.996838569641113 L 2.749557495117188 4.342498779296875 L 6.901602268218994 8.402276039123535 L 20.08968734741211 -4.374821186065674 L 20.44314765930176 -4.717271327972412 L 20.79114723205566 -4.369271278381348 L 22.19114685058594 -2.969271421432495 L 22.5485782623291 -2.611851453781128 L 22.18727684020996 -2.258341312408447 L 7.249677658081055 12.35737895965576 L 6.896167278289795 12.70327854156494 Z"/><path class="e" d="M 6.899997711181641 11.99999904632568 L 21.83759689331055 -2.615721464157104 L 20.43759727478027 -4.015721321105957 L 6.899997711181641 9.099998474121094 L 2.399997472763062 4.69999885559082 L 0.9999974966049194 6.099998474121094 L 6.899997711181641 11.99999904632568 M 6.892337322235107 13.40654850006104 L 6.192887306213379 12.70710849761963 L 0.2928874790668488 6.807108402252197 L -0.4142124950885773 6.099998474121094 L 0.2928874790668488 5.39288854598999 L 1.692887544631958 3.992888689041138 L 2.392097473144531 3.293688535690308 L 3.099117517471313 3.984988689422607 L 6.903202533721924 7.704538345336914 L 19.74176788330078 -4.733931541442871 L 20.44869804382324 -5.418831348419189 L 21.14470672607422 -4.722831249237061 L 22.54470825195313 -3.322831392288208 L 23.25955772399902 -2.607981443405151 L 22.53695678710938 -1.900951385498047 L 7.599357604980469 12.714768409729 L 6.892337322235107 13.40654850006104 Z"/></g></g></svg>