<svg xmlns="http://www.w3.org/2000/svg" viewBox="755.5 3131.5 21 21"><defs><style>.a{fill:none;stroke:#95989a;fill-rule:evenodd;}</style></defs><path class="a" d="M2.5,6.25V17.5h15V6.25ZM16.25,2.5h2.5A1.181,1.181,0,0,1,20,3.75v15A1.181,1.181,0,0,1,18.75,20H1.25A1.181,1.181,0,0,1,0,18.75v-15A1.181,1.181,0,0,1,1.25,2.5h2.5V1.25A1.181,1.181,0,0,1,5,0,1.181,1.181,0,0,1,6.25,1.25V2.5h7.5V1.25a1.25,1.25,0,0,1,2.5,0ZM15,15H12.5V12.5H15Zm-3.75,0H8.75V12.5h2.5ZM15,11.25H12.5V8.75H15Zm-3.75,0H8.75V8.75h2.5ZM7.5,15H5V12.5H7.5Z" transform="translate(756 3132)"/></svg>