<svg xmlns="http://www.w3.org/2000/svg" viewBox="-213.5 3192.138 19.692 22.362"><defs>
<style>.a{fill:none;stroke:#95989a;fill-rule:evenodd;}</style></defs><path class="a" d="M9.346,10.681a2.67,2.67,0,1,1-2.67,2.67A2.678,2.678,0,0,1,9.346,10.681Zm0-8.011a2.678,2.678,0,0,0-2.67,2.67h5.341A2.678,2.678,0,0,0,9.346,2.67Zm6.676,18.692H2.67A2.678,2.678,0,0,1,0,18.692V8.011a2.678,2.678,0,0,1,2.67-2.67H4.005a5.341,5.341,0,1,1,10.681,0h1.335a2.678,2.678,0,0,1,2.67,2.67V18.692A2.678,2.678,0,0,1,16.022,21.362Z" transform="translate(-213 3192.638)"/></svg>