<svg xmlns="http://www.w3.org/2000/svg" viewBox="-568 4275.1 97.503 63.6"><defs><style>.a{fill:#ee589f;}</style></defs><path class="a" d="M97.1,514.2l-71.9-.1v12.6c1.3,8.9,7.9,14.6,16.9,14.9,5,.1,10,0,15,0H70.3v9.1c0,.1-70.3-.2-70.3-.2,0,2.6,0,5.1-.1,7.7v1c.1,7.9,3.2,13.5,8.7,16.3a21.525,21.525,0,0,0,8.8,2.2H61.5c6.8,0,12.4-2.5,15.8-8.6,1.5-2.8,2.1-6,3.2-9.2,8.7-.8,15.5-5.1,16.4-14.1C97.9,535.5,97.1,525.1,97.1,514.2ZM62.2,568.6H60.5c-5.1,0-10.2.1-15.2.1-10.4,0-11.2,0-21.7-.1H17.2c-5.2-.1-8.1-3.6-7.9-8.7l61-.2C70,565.5,67.3,568.6,62.2,568.6Zm26.1-25.1c-.3,4.4-3.5,6.5-8.6,6.8V532.5H43.8c-6.1,0-9-2.7-9.5-8.7H88.5C88.4,530.4,88.8,537,88.3,543.5Z" transform="translate(-567.9 3761)"/></svg>